<svg xmlns="http://www.w3.org/2000/svg" viewBox="0 0 15.26 18.18"><defs><style>.cls-1,.cls-2{fill:#fff;}.cls-2{stroke:#007bff;stroke-miterlimit:10;}</style></defs><title>Ativo 6</title><g id="Camada_2" data-name="Camada 2"><g id="Camada_1-2" data-name="Camada 1"><path class="cls-1" d="M3.45,15.38l4.1,1.41A2.14,2.14,0,0,1,4.84,18,2.11,2.11,0,0,1,3.45,15.38Z"/><path class="cls-1" d="M.2,13.49l11,3.74a.47.47,0,0,0,.54-.16c.14-.2.2-.52-.17-1-.43-.68-.9-1.65.08-4.77.5-1.37,1.25-4.09-1.73-5.88A3.29,3.29,0,0,0,8.67,5,4.31,4.31,0,0,0,3.74,8.48c-.83,2-1.46,3.77-3,3.91a.73.73,0,0,0-.48.23c-.18.22-.36.55-.19.78A.3.3,0,0,0,.2,13.49Z"/><path class="cls-1" d="M2.73,7A.29.29,0,0,0,3,7.32c.3,0,.36-.12.48-.47A4.54,4.54,0,0,1,7.13,4.34c.19,0,.21-.42.06-.64A4.5,4.5,0,0,0,4.33,4.82,4.33,4.33,0,0,0,2.73,7Z"/><path class="cls-1" d="M1.35,6.19a.37.37,0,0,0,.33.41c.38,0,.46-.14.62-.58A5.74,5.74,0,0,1,6.94,3c.24,0,.28-.53.1-.81A5.76,5.76,0,0,0,3.42,3.48,5.5,5.5,0,0,0,1.35,6.19Z"/><path class="cls-1" d="M13.41,10.65a.3.3,0,0,1-.41.09c-.26-.16-.22-.32-.1-.67a4.56,4.56,0,0,0-1.34-4.22c-.14-.13.09-.46.34-.54a4.59,4.59,0,0,1,1.58,2.63A4.36,4.36,0,0,1,13.41,10.65Z"/><path class="cls-1" d="M15,10.86a.36.36,0,0,1-.51.11c-.33-.19-.28-.38-.14-.83a5.72,5.72,0,0,0-1.79-5.28c-.17-.16.1-.58.42-.69a5.69,5.69,0,0,1,2,3.28A5.45,5.45,0,0,1,15,10.86Z"/><rect class="cls-1" x="9.98" y="-0.01" width="1.14" height="5.75" transform="translate(1.97 -3.91) rotate(23.09)"/><line class="cls-2" x1="4.74" y1="12.96" x2="6.96" y2="7.03"/><line class="cls-2" x1="6.44" y1="13.33" x2="8.66" y2="7.41"/><line class="cls-2" x1="7.95" y1="14.09" x2="10.17" y2="8.16"/></g></g></svg>