<svg xmlns="http://www.w3.org/2000/svg" viewBox="0 0 26.42 26.42"><defs><style>.cls-1{fill:#444;stroke:#b1b2b1;stroke-miterlimit:10;}</style></defs><title>Ativo 4</title><g id="Camada_2" data-name="Camada 2"><g id="Camada_1-2" data-name="Camada 1"><path class="cls-1" d="M13.21.5A12.71,12.71,0,1,0,25.92,13.21,12.71,12.71,0,0,0,13.21.5Zm6.65,15.06a3,3,0,0,1,0,4.31l-.15.15a3,3,0,0,1-4.31,0l-2.19-2.18L11,20a3,3,0,0,1-4.31,0l-.15-.15a3,3,0,0,1,0-4.31l2.19-2.19L6.56,11.19a3.06,3.06,0,0,1,0-4.32l.15-.15a3,3,0,0,1,4.31,0l2.19,2.19L15.4,6.72a3,3,0,0,1,4.31,0l.15.15a3.06,3.06,0,0,1,0,4.32l-2.19,2.18Z"/></g></g></svg>