<svg xmlns="http://www.w3.org/2000/svg" viewBox="0 0 26.42 26.42"><defs><style>.cls-1{fill:#444;stroke:#b1b2b1;stroke-miterlimit:10;}</style></defs><title>Ativo 3</title><g id="Camada_2" data-name="Camada 2"><g id="Camada_1-2" data-name="Camada 1"><path class="cls-1" d="M25.92,13.21A2.53,2.53,0,0,0,24.4,11a3.53,3.53,0,0,1-1.89-1.6,3.46,3.46,0,0,1,.21-2.47,2.53,2.53,0,0,0-.52-2.67,2.53,2.53,0,0,0-2.67-.52,3.46,3.46,0,0,1-2.47.21A3.53,3.53,0,0,1,15.46,2,2.43,2.43,0,0,0,11,2a3.53,3.53,0,0,1-1.6,1.89A3.46,3.46,0,0,1,6.89,3.7a2.53,2.53,0,0,0-2.67.52A2.53,2.53,0,0,0,3.7,6.89a3.46,3.46,0,0,1,.21,2.47A3.53,3.53,0,0,1,2,11a2.43,2.43,0,0,0,0,4.5,3.53,3.53,0,0,1,1.89,1.6,3.46,3.46,0,0,1-.21,2.47,2.53,2.53,0,0,0,.52,2.67,2.53,2.53,0,0,0,2.67.52,3.46,3.46,0,0,1,2.47-.21A3.57,3.57,0,0,1,11,24.4a2.43,2.43,0,0,0,4.5,0,3.57,3.57,0,0,1,1.6-1.89,3.46,3.46,0,0,1,2.47.21,2.43,2.43,0,0,0,3.19-3.19,3.46,3.46,0,0,1-.21-2.47,3.53,3.53,0,0,1,1.89-1.6,2.52,2.52,0,0,0,1.52-2.25ZM13.21,17.88a4.67,4.67,0,1,1,4.66-4.67,4.66,4.66,0,0,1-4.66,4.67Z"/></g></g></svg>