<svg xmlns="http://www.w3.org/2000/svg" xmlns:xlink="http://www.w3.org/1999/xlink" viewBox="0 0 29.54 16.14"><defs><style>.cls-1{fill:none;}.cls-2{clip-path:url(#clip-path);}.cls-3{fill:#fff;}.cls-4{opacity:0.5;fill:url(#linear-gradient);}.cls-5{clip-path:url(#clip-path-2);}.cls-6{clip-path:url(#clip-path-3);}.cls-7{fill:#2a378e;}.cls-8{fill:#f4ca28;}.cls-9{opacity:0.3;fill:url(#linear-gradient-2);}</style><clipPath id="clip-path"><path class="cls-1" d="M22.14,8A7.37,7.37,0,1,1,14.77.66,7.37,7.37,0,0,1,22.14,8Z"/></clipPath><linearGradient id="linear-gradient" x1="14.76" y1="9.19" x2="14.78" y2="3.03" gradientUnits="userSpaceOnUse"><stop offset="0" stop-color="#fff" stop-opacity="0"/><stop offset="1" stop-color="#fff"/></linearGradient><clipPath id="clip-path-2"><path class="cls-1" d="M22.59,8A7.62,7.62,0,1,1,15,.41,7.62,7.62,0,0,1,22.59,8Z"/></clipPath><clipPath id="clip-path-3"><rect class="cls-1" x="1.34" width="27.66" height="16.14"/></clipPath><linearGradient id="linear-gradient-2" x1="15.03" y1="8.66" x2="15.04" y2="2.5" xlink:href="#linear-gradient"/></defs><title>Ativo 7</title><g id="Camada_2" data-name="Camada 2"><g id="Camada_1-2" data-name="Camada 1"><g class="cls-2"><polygon class="cls-3" points="12.31 0.65 17.23 0.65 17.23 5.72 29.54 5.58 29.54 10.5 17.23 10.65 17.23 15.57 12.31 15.57 12.31 10.65 0 10.5 0 5.58 12.31 5.72 12.31 0.65"/><polygon class="cls-3" points="0 0.65 3.3 0.8 29.54 13.92 29.54 15.42 26.24 15.57 0 2.31 0 0.65"/><polygon class="cls-3" points="29.54 0.65 26.24 0.8 0 13.92 0 15.42 3.3 15.57 29.54 2.31 29.54 0.65"/></g><path class="cls-4" d="M20.54,5.21c0,2.22-2.58,4-5.77,4S9,7.43,9,5.21s2.58-4,5.76-4S20.54,3,20.54,5.21Z"/><g class="cls-5"><g class="cls-6"><rect class="cls-7" x="1.34" width="27.66" height="16.14"/><polygon class="cls-8" points="15.17 1.79 14.96 2.41 14.31 2.41 14.84 2.8 14.64 3.42 15.17 3.03 15.69 3.42 15.49 2.8 16.02 2.41 15.37 2.41 15.17 1.79"/><polygon class="cls-8" points="15.37 13.17 15.17 12.55 14.96 13.17 14.31 13.17 14.84 13.55 14.64 14.17 15.17 13.79 15.69 14.17 15.49 13.55 16.02 13.17 15.37 13.17"/><polygon class="cls-8" points="9.79 8.41 10.31 8.79 10.11 8.17 10.64 7.79 9.99 7.79 9.79 7.17 9.59 7.79 8.94 7.79 9.46 8.17 9.26 8.79 9.79 8.41"/><polygon class="cls-8" points="12.48 2.51 12.28 3.13 11.62 3.13 12.15 3.52 11.95 4.14 12.48 3.75 13 4.14 12.8 3.52 13.33 3.13 12.68 3.13 12.48 2.51"/><polygon class="cls-8" points="10.51 4.48 10.31 5.1 9.65 5.1 10.18 5.49 9.98 6.1 10.51 5.72 11.04 6.1 10.83 5.49 11.36 5.1 10.71 5.1 10.51 4.48"/><polygon class="cls-8" points="10.71 10.48 10.51 9.86 10.31 10.48 9.65 10.48 10.18 10.86 9.98 11.48 10.51 11.1 11.04 11.48 10.83 10.86 11.36 10.48 10.71 10.48"/><polygon class="cls-8" points="12.68 12.45 12.48 11.83 12.28 12.45 11.62 12.45 12.15 12.83 11.95 13.45 12.48 13.07 13 13.45 12.8 12.83 13.33 12.45 12.68 12.45"/><polygon class="cls-8" points="21.4 7.79 20.75 7.79 20.55 7.17 20.34 7.79 19.69 7.79 20.22 8.17 20.02 8.79 20.55 8.41 21.07 8.79 20.87 8.17 21.4 7.79"/><polygon class="cls-8" points="17.86 2.51 17.65 3.13 17 3.13 17.53 3.52 17.33 4.14 17.86 3.75 18.38 4.14 18.18 3.52 18.71 3.13 18.06 3.13 17.86 2.51"/><polygon class="cls-8" points="19.5 5.49 19.3 6.1 19.82 5.72 20.35 6.1 20.15 5.49 20.68 5.1 20.02 5.1 19.82 4.48 19.62 5.1 18.97 5.1 19.5 5.49"/><polygon class="cls-8" points="20.02 10.48 19.82 9.86 19.62 10.48 18.97 10.48 19.5 10.86 19.3 11.48 19.82 11.1 20.35 11.48 20.15 10.86 20.68 10.48 20.02 10.48"/><polygon class="cls-8" points="18.06 12.45 17.86 11.83 17.65 12.45 17 12.45 17.53 12.83 17.33 13.45 17.86 13.07 18.38 13.45 18.18 12.83 18.71 12.45 18.06 12.45"/></g></g><path class="cls-9" d="M20.8,4.67c0,2.23-2.58,4-5.76,4s-5.77-1.81-5.77-4,2.59-4,5.77-4S20.8,2.44,20.8,4.67Z"/></g></g></svg>