<svg xmlns="http://www.w3.org/2000/svg" viewBox="0 0 19.21 16.41"><defs><style>.cls-1{fill:#717172;}</style></defs><title>Ativo 5</title><g id="Camada_2" data-name="Camada 2"><g id="Camada_1-2" data-name="Camada 1"><polygon class="cls-1" points="19.21 4.43 19.12 4.43 19.12 4.12 2.91 4.12 5.93 1.06 4.88 0 4.85 0.03 4.84 0.03 1.06 3.81 1.06 3.81 0 4.87 0.02 4.89 0.04 4.91 0.03 4.91 1.09 5.97 1.1 5.96 4.84 9.71 4.88 9.68 4.91 9.71 5.97 8.65 2.89 5.62 19.12 5.62 19.12 5.31 19.21 5.31 19.21 4.43"/><polygon class="cls-1" points="0 11.98 0.08 11.98 0.08 12.29 16.29 12.29 13.27 15.35 14.33 16.41 14.36 16.38 14.36 16.39 18.15 12.6 18.15 12.6 19.21 11.54 19.18 11.52 19.17 11.51 19.17 11.5 18.12 10.44 18.11 10.45 14.36 6.7 14.33 6.73 14.3 6.7 13.24 7.76 16.32 10.79 0.08 10.79 0.08 11.11 0 11.11 0 11.98"/></g></g></svg>